<svg width="18" height="18" viewBox="0 0 18 18" fill="none" xmlns="http://www.w3.org/2000/svg">
<path d="M9.07563 0C9.05672 0 9.03025 3.1956e-08 9.00756 0.00453785C8.83361 0.0366807 8.62563 0.197395 8.4895 0.56458C8.3458 0.931387 8.31555 1.45437 8.44034 2.01441C8.56891 2.56765 8.83361 3.0445 9.12857 3.33567C9.41597 3.62685 9.67689 3.70626 9.85084 3.67601C10.0324 3.64954 10.2328 3.48315 10.3689 3.12013C10.5126 2.75559 10.5504 2.22542 10.4219 1.66992C10.2895 1.11025 10.0286 0.637941 9.73361 0.348656C9.48403 0.0915127 9.25336 0 9.07563 0ZM13.4395 4.89744C13.0235 4.90878 12.4979 5.01845 11.9874 5.23399C11.3975 5.49113 10.9437 5.83525 10.6941 6.16046C10.4445 6.47433 10.4218 6.71256 10.5013 6.85248C10.5845 6.9924 10.8151 7.12475 11.2576 7.14366C11.7 7.17013 12.2975 7.06046 12.8836 6.81088C13.4697 6.55752 13.9311 6.20962 14.1807 5.89197C14.4303 5.57811 14.4492 5.33231 14.3697 5.1924C14.2903 5.0487 14.0559 4.92391 13.6134 4.90878C13.5529 4.89744 13.5 4.89744 13.4395 4.89744ZM8.28529 8.41046C8.03572 8.41424 7.80882 8.4445 7.60462 8.49744C7.1584 8.61088 6.90126 8.81508 6.81807 9.06088C6.72353 9.30668 6.81807 9.60164 7.11303 9.91929C7.42311 10.2294 7.93361 10.5281 8.56891 10.6945C9.20042 10.8609 9.80924 10.8571 10.263 10.7361C10.7206 10.6189 10.9777 10.4109 11.0609 10.1689C11.1479 9.92307 11.0609 9.63189 10.7546 9.31046C10.4559 9.00038 9.94538 8.70164 9.31009 8.53903C8.95084 8.4445 8.59916 8.40668 8.28529 8.41046ZM14.3622 10.6075L12.0252 11.7155C12.184 11.7231 12.5811 11.7344 12.5811 11.7344L12.8307 12.0634L14.8992 10.9857L14.3622 10.6075ZM12.3013 10.6113L10.1307 11.6399C10.3387 11.6512 10.8303 11.6588 11.0269 11.6701L12.9101 10.7777L12.3013 10.6113ZM15.8029 11.0197L13.137 12.434L13.6853 13.1411L16.5025 11.4546L15.8029 11.0197ZM5.26008 11.3638C5.14558 11.3636 5.03141 11.3763 4.91975 11.4016C2.21597 12.0256 0.620168 12.0785 0.147479 12.0785H0V16.1437C0 16.1437 0.438655 16.0794 1.16849 16.0756C2.57899 16.0756 5.06345 16.3176 7.48361 17.7319C7.61219 17.8113 7.88824 17.8416 8.23235 17.8416C9.15126 17.8416 10.5466 17.6222 10.8681 17.5012C14.105 16.2874 18 12.9558 18 12.9558L16.771 11.8819C16.771 11.8819 13.7534 13.8067 13.3714 13.992C9.92647 15.6823 7.13571 14.6273 7.13571 14.6273C7.13571 14.6273 11.6697 14.7407 13.1256 13.5949L12.271 12.3092C12.271 12.3092 9.13992 12.2222 8.02437 12.0747C7.44202 11.9991 6.18277 11.3638 5.26008 11.3638Z" fill="#F5F5F5"/>
</svg>
