<svg width="16" height="19" viewBox="0 0 16 19" fill="none" xmlns="http://www.w3.org/2000/svg">
<path d="M7.86705 0C7.24656 0.012493 6.80098 0.133259 6.50531 0.349804L2.45341 2.51942L0.200502 5.58396C-0.274233 6.31688 0.0630787 7.73276 1.54558 6.82493L3.16967 4.68446C5.23102 2.90671 9.437 3.7225 7.44229 7.29134C6.46367 9.35685 6.92174 10.3646 8.18354 10.7894L8.75821 8.85713C9.75349 6.61672 11.6108 6.21278 11.5358 4.40545L16 4.72611L15.9584 0.0583007L7.86705 0ZM5.61414 4.30551C4.88955 4.29302 4.17744 4.59285 3.66107 5.02594L2.03281 7.16641C2.47839 7.52038 2.92814 7.32882 3.37373 6.89989C3.89843 7.16641 4.30654 6.75414 4.63969 5.9296C4.77711 5.36741 4.98116 4.9718 5.61414 4.30551ZM2.29933 8.30327C2.28267 8.30327 2.26185 8.30327 2.24519 8.30744C2.10777 8.33659 1.94536 8.48234 1.83709 8.81549C1.72465 9.14863 1.69966 9.62337 1.79961 10.1314C1.89955 10.6353 2.10777 11.0642 2.34097 11.3307C2.56585 11.5931 2.77406 11.6681 2.91148 11.6389C3.05307 11.6139 3.21132 11.464 3.31959 11.135C3.43203 10.8019 3.46118 10.323 3.36123 9.81909C3.25713 9.31104 3.04891 8.88212 2.81987 8.61976C2.61998 8.38656 2.43675 8.30327 2.29933 8.30327ZM5.73907 12.7508C5.41009 12.755 4.99782 12.8591 4.59388 13.0548C4.13164 13.2838 3.76934 13.6003 3.57362 13.8918C3.37789 14.1792 3.36123 14.3957 3.4237 14.5248C3.48616 14.6497 3.66939 14.7705 4.0192 14.7871C4.369 14.808 4.83957 14.7122 5.30182 14.4832C5.76406 14.2541 6.12635 13.9418 6.32208 13.6503C6.5178 13.3629 6.53446 13.1422 6.47199 13.0173C6.40953 12.8882 6.2263 12.7716 5.87649 12.755C5.83069 12.7508 5.78904 12.7508 5.73907 12.7508ZM1.67468 16.7319C1.47895 16.7361 1.29989 16.7652 1.14164 16.811C0.787673 16.9151 0.583621 17.1025 0.516991 17.3232C0.446198 17.5481 0.516991 17.8146 0.754359 18.102C0.99589 18.3851 1.39983 18.6558 1.89955 18.8057C2.39511 18.9556 2.87817 18.9515 3.2363 18.8432C3.59444 18.7391 3.79849 18.5517 3.86512 18.331C3.93175 18.1061 3.86512 17.8396 3.62359 17.5523C3.38622 17.2691 2.98228 16.9984 2.48256 16.8485C2.19938 16.7652 1.92454 16.7277 1.67468 16.7319Z" fill="#F5F5F5"/>
</svg>
