<svg width="22" height="18" viewBox="0 0 22 18" fill="none" xmlns="http://www.w3.org/2000/svg">
<path d="M13.4838 0C12.8936 0.0118845 12.4697 0.126768 12.1884 0.332765L8.3339 2.3967L6.19074 5.31196C5.73913 6.00918 6.06001 7.35609 7.4703 6.49248L9.01528 4.45628C10.9762 2.76512 14.9773 3.54117 13.0798 6.93617C12.1488 8.90107 12.5846 9.85975 13.7849 10.2638L14.3316 8.42569C15.2784 6.29441 17.0452 5.91014 16.9739 4.19086L21.2206 4.49589L21.181 0.0554608L13.4838 0ZM11.3407 4.09578C10.6514 4.0839 9.97396 4.36913 9.48273 4.78112L7.93379 6.81733C8.35767 7.15405 8.78551 6.97182 9.20939 6.56379C9.70854 6.81733 10.0968 6.42514 10.4137 5.64076C10.5444 5.10596 10.7385 4.72962 11.3407 4.09578ZM8.18733 7.89881C8.17148 7.89881 8.15167 7.89881 8.13583 7.90277C8.0051 7.9305 7.8506 8.06916 7.7476 8.38607C7.64064 8.70299 7.61687 9.1546 7.71195 9.63791C7.80702 10.1172 8.0051 10.5253 8.22694 10.7788C8.44086 11.0284 8.63893 11.0997 8.76966 11.072C8.90435 11.0482 9.05489 10.9056 9.15789 10.5926C9.26485 10.2757 9.29258 9.82013 9.1975 9.34079C9.09847 8.85749 8.90039 8.44946 8.68251 8.19988C8.49236 7.97804 8.31805 7.89881 8.18733 7.89881ZM11.4595 12.1297C11.1466 12.1336 10.7544 12.2327 10.3701 12.4189C9.93038 12.6368 9.58573 12.9378 9.39954 13.2151C9.21335 13.4885 9.1975 13.6945 9.25693 13.8173C9.31635 13.9361 9.49065 14.051 9.82342 14.0668C10.1562 14.0867 10.6038 13.9955 11.0436 13.7777C11.4833 13.5598 11.8279 13.2627 12.0141 12.9854C12.2003 12.712 12.2162 12.5021 12.1567 12.3832C12.0973 12.2604 11.923 12.1495 11.5902 12.1336C11.5467 12.1297 11.5071 12.1297 11.4595 12.1297ZM7.5931 15.9169C7.40691 15.9208 7.23657 15.9486 7.08603 15.9921C6.7493 16.0912 6.55519 16.2694 6.49181 16.4794C6.42446 16.6933 6.49181 16.9468 6.71761 17.2202C6.94738 17.4896 7.33164 17.7471 7.80702 17.8897C8.27844 18.0323 8.73797 18.0283 9.07866 17.9253C9.41935 17.8263 9.61346 17.648 9.67684 17.4381C9.74023 17.2242 9.67684 16.9706 9.44708 16.6973C9.22127 16.4279 8.83701 16.1704 8.36163 16.0278C8.09225 15.9486 7.83079 15.9129 7.5931 15.9169Z" fill="#F5F5F5"/>
<path d="M3.5 6.75V5L1.3125 7.1875L3.5 9.375V7.625C4.94812 7.625 6.125 8.80188 6.125 10.25C6.125 11.6981 4.94812 12.875 3.5 12.875C2.05188 12.875 0.875 11.6981 0.875 10.25H0C0 12.1838 1.56625 13.75 3.5 13.75C5.43375 13.75 7 12.1838 7 10.25C7 8.31625 5.43375 6.75 3.5 6.75Z" fill="#FB8500"/>
</svg>
