<svg width="35" height="39" viewBox="0 0 35 39" fill="none" xmlns="http://www.w3.org/2000/svg">
<path fill-rule="evenodd" clip-rule="evenodd" d="M8.25417 0H26.7458C28.9994 0 30.1253 2.08616e-07 31.0353 0.316945C31.8929 0.621684 32.6689 1.11973 33.3031 1.77252C33.9374 2.42532 34.4129 3.21533 34.6928 4.08139C35 5.01861 35 6.1775 35 8.49722V35.7272C35 37.3956 33.0847 38.2822 31.8733 37.1739C31.5335 36.8599 31.0877 36.6855 30.625 36.6855C30.1623 36.6855 29.7165 36.8599 29.3767 37.1739L28.4375 38.0333C27.8421 38.5839 27.061 38.8897 26.25 38.8897C25.439 38.8897 24.6579 38.5839 24.0625 38.0333C23.4671 37.4827 22.686 37.1769 21.875 37.1769C21.064 37.1769 20.2829 37.4827 19.6875 38.0333C19.0921 38.5839 18.311 38.8897 17.5 38.8897C16.689 38.8897 15.9079 38.5839 15.3125 38.0333C14.7171 37.4827 13.936 37.1769 13.125 37.1769C12.314 37.1769 11.5329 37.4827 10.9375 38.0333C10.3421 38.5839 9.56096 38.8897 8.75 38.8897C7.93904 38.8897 7.1579 38.5839 6.5625 38.0333L5.62333 37.1739C5.28347 36.8599 4.83773 36.6855 4.375 36.6855C3.91226 36.6855 3.46653 36.8599 3.12667 37.1739C1.91528 38.2822 0 37.3956 0 35.7272V8.49722C0 6.1775 -2.08616e-08 5.01667 0.307222 4.08333C0.890556 2.30806 2.24194 0.915834 3.96472 0.316945C4.87472 2.08616e-07 6.00056 0 8.25417 0ZM7.77778 9.23611C7.391 9.23611 7.02007 9.38976 6.74658 9.66325C6.47309 9.93674 6.31944 10.3077 6.31944 10.6944C6.31944 11.0812 6.47309 11.4522 6.74658 11.7256C7.02007 11.9991 7.391 12.1528 7.77778 12.1528H8.75C9.13677 12.1528 9.50771 11.9991 9.7812 11.7256C10.0547 11.4522 10.2083 11.0812 10.2083 10.6944C10.2083 10.3077 10.0547 9.93674 9.7812 9.66325C9.50771 9.38976 9.13677 9.23611 8.75 9.23611H7.77778ZM14.5833 9.23611C14.1966 9.23611 13.8256 9.38976 13.5521 9.66325C13.2786 9.93674 13.125 10.3077 13.125 10.6944C13.125 11.0812 13.2786 11.4522 13.5521 11.7256C13.8256 11.9991 14.1966 12.1528 14.5833 12.1528H27.2222C27.609 12.1528 27.9799 11.9991 28.2534 11.7256C28.5269 11.4522 28.6806 11.0812 28.6806 10.6944C28.6806 10.3077 28.5269 9.93674 28.2534 9.66325C27.9799 9.38976 27.609 9.23611 27.2222 9.23611H14.5833ZM7.77778 16.0417C7.391 16.0417 7.02007 16.1953 6.74658 16.4688C6.47309 16.7423 6.31944 17.1132 6.31944 17.5C6.31944 17.8868 6.47309 18.2577 6.74658 18.5312C7.02007 18.8047 7.391 18.9583 7.77778 18.9583H8.75C9.13677 18.9583 9.50771 18.8047 9.7812 18.5312C10.0547 18.2577 10.2083 17.8868 10.2083 17.5C10.2083 17.1132 10.0547 16.7423 9.7812 16.4688C9.50771 16.1953 9.13677 16.0417 8.75 16.0417H7.77778ZM14.5833 16.0417C14.1966 16.0417 13.8256 16.1953 13.5521 16.4688C13.2786 16.7423 13.125 17.1132 13.125 17.5C13.125 17.8868 13.2786 18.2577 13.5521 18.5312C13.8256 18.8047 14.1966 18.9583 14.5833 18.9583H27.2222C27.609 18.9583 27.9799 18.8047 28.2534 18.5312C28.5269 18.2577 28.6806 17.8868 28.6806 17.5C28.6806 17.1132 28.5269 16.7423 28.2534 16.4688C27.9799 16.1953 27.609 16.0417 27.2222 16.0417H14.5833ZM7.77778 22.8472C7.391 22.8472 7.02007 23.0009 6.74658 23.2744C6.47309 23.5478 6.31944 23.9188 6.31944 24.3056C6.31944 24.6923 6.47309 25.0633 6.74658 25.3368C7.02007 25.6102 7.391 25.7639 7.77778 25.7639H8.75C9.13677 25.7639 9.50771 25.6102 9.7812 25.3368C10.0547 25.0633 10.2083 24.6923 10.2083 24.3056C10.2083 23.9188 10.0547 23.5478 9.7812 23.2744C9.50771 23.0009 9.13677 22.8472 8.75 22.8472H7.77778ZM14.5833 22.8472C14.1966 22.8472 13.8256 23.0009 13.5521 23.2744C13.2786 23.5478 13.125 23.9188 13.125 24.3056C13.125 24.6923 13.2786 25.0633 13.5521 25.3368C13.8256 25.6102 14.1966 25.7639 14.5833 25.7639H27.2222C27.609 25.7639 27.9799 25.6102 28.2534 25.3368C28.5269 25.0633 28.6806 24.6923 28.6806 24.3056C28.6806 23.9188 28.5269 23.5478 28.2534 23.2744C27.9799 23.0009 27.609 22.8472 27.2222 22.8472H14.5833Z" fill="#F5F5F5"/>
</svg>
