<svg width="45" height="36" viewBox="0 0 45 36" fill="none" xmlns="http://www.w3.org/2000/svg">
<path d="M29.25 0C30.4435 0 31.5881 0.474106 32.432 1.31802C33.2759 2.16193 33.75 3.30653 33.75 4.5V6.75H37.17C37.8445 6.75008 38.5103 6.90178 39.1183 7.19388C39.7262 7.48597 40.2607 7.91099 40.6822 8.4375L44.0123 12.6022C44.6515 13.4003 44.9998 14.3923 45 15.4147V24.75C45 25.9435 44.5259 27.0881 43.682 27.932C42.8381 28.7759 41.6935 29.25 40.5 29.25H38.25C38.25 31.0402 37.5388 32.7571 36.273 34.023C35.0071 35.2888 33.2902 36 31.5 36C29.7098 36 27.9929 35.2888 26.727 34.023C25.4612 32.7571 24.75 31.0402 24.75 29.25H18C18 30.1364 17.8254 31.0142 17.4862 31.8331C17.147 32.6521 16.6498 33.3962 16.023 34.023C15.3962 34.6498 14.6521 35.147 13.8331 35.4862C13.0142 35.8254 12.1364 36 11.25 36C10.3636 36 9.48583 35.8254 8.66689 35.4862C7.84794 35.147 7.10383 34.6498 6.47703 34.023C5.85023 33.3962 5.35303 32.6521 5.01381 31.8331C4.67459 31.0142 4.5 30.1364 4.5 29.25C3.30653 29.25 2.16193 28.7759 1.31802 27.932C0.474106 27.0881 0 25.9435 0 24.75V4.5C0 3.30653 0.474106 2.16193 1.31802 1.31802C2.16193 0.474106 3.30653 0 4.5 0H29.25ZM11.25 27C10.6533 27 10.081 27.2371 9.65901 27.659C9.23705 28.081 9 28.6533 9 29.25C9 29.8467 9.23705 30.419 9.65901 30.841C10.081 31.2629 10.6533 31.5 11.25 31.5C11.8467 31.5 12.419 31.2629 12.841 30.841C13.2629 30.419 13.5 29.8467 13.5 29.25C13.5 28.6533 13.2629 28.081 12.841 27.659C12.419 27.2371 11.8467 27 11.25 27ZM31.5 27C30.9033 27 30.331 27.2371 29.909 27.659C29.4871 28.081 29.25 28.6533 29.25 29.25C29.25 29.8467 29.4871 30.419 29.909 30.841C30.331 31.2629 30.9033 31.5 31.5 31.5C32.0967 31.5 32.669 31.2629 33.091 30.841C33.5129 30.419 33.75 29.8467 33.75 29.25C33.75 28.6533 33.5129 28.081 33.091 27.659C32.669 27.2371 32.0967 27 31.5 27ZM37.17 11.25H33.75V20.25H40.5V15.4125L37.17 11.25Z" fill="#F5F5F5"/>
</svg>
