<svg width="35" height="40" viewBox="0 0 35 40" fill="none" xmlns="http://www.w3.org/2000/svg">
<path d="M7.5 0C3.35938 0 0 3.35938 0 7.5V32.5C0 36.6406 3.35938 40 7.5 40H32.5C33.8828 40 35 38.8828 35 37.5C35 36.1172 33.8828 35 32.5 35V30C33.8828 30 35 28.8828 35 27.5V2.5C35 1.11719 33.8828 0 32.5 0H7.5ZM7.5 30H27.5V35H7.5C6.11719 35 5 33.8828 5 32.5C5 31.1172 6.11719 30 7.5 30ZM10 11.25C10 10.5625 10.5625 10 11.25 10H26.25C26.9375 10 27.5 10.5625 27.5 11.25C27.5 11.9375 26.9375 12.5 26.25 12.5H11.25C10.5625 12.5 10 11.9375 10 11.25ZM11.25 15H26.25C26.9375 15 27.5 15.5625 27.5 16.25C27.5 16.9375 26.9375 17.5 26.25 17.5H11.25C10.5625 17.5 10 16.9375 10 16.25C10 15.5625 10.5625 15 11.25 15Z" fill="#F5F5F5"/>
</svg>
