<svg width="18" height="18" viewBox="0 0 18 18" fill="none" xmlns="http://www.w3.org/2000/svg">
<path d="M9 0C4.02863 0 0 4.02975 0 9C0 13.9703 4.02863 18 9 18C13.9714 18 18 13.9703 18 9C18 4.02975 13.9714 0 9 0ZM13.1704 11.5796C13.3813 11.7906 13.4998 12.0767 13.4998 12.375C13.4998 12.6733 13.3813 12.9594 13.1704 13.1704C12.9594 13.3813 12.6733 13.4998 12.375 13.4998C12.0767 13.4998 11.7906 13.3813 11.5796 13.1704L9 10.5907L6.42037 13.1704C6.31614 13.2752 6.19221 13.3584 6.05571 13.4152C5.91921 13.4719 5.77283 13.5012 5.625 13.5012C5.47717 13.5012 5.33079 13.4719 5.19429 13.4152C5.05779 13.3584 4.93386 13.2752 4.82963 13.1704C4.61872 12.9594 4.50024 12.6733 4.50024 12.375C4.50024 12.0767 4.61872 11.7906 4.82963 11.5796L7.40925 9L4.82963 6.42037C4.61868 6.20943 4.50017 5.92332 4.50017 5.625C4.50017 5.32668 4.61868 5.04057 4.82963 4.82963C5.04057 4.61868 5.32668 4.50017 5.625 4.50017C5.92332 4.50017 6.20943 4.61868 6.42037 4.82963L9 7.40925L11.5796 4.82963C11.7906 4.61868 12.0767 4.50017 12.375 4.50017C12.6733 4.50017 12.9594 4.61868 13.1704 4.82963C13.3813 5.04057 13.4998 5.32668 13.4998 5.625C13.4998 5.92332 13.3813 6.20943 13.1704 6.42037L10.5907 9L13.1704 11.5796Z" fill="#F5F5F5"/>
</svg>
