<svg width="15" height="16" viewBox="0 0 15 16" fill="none" xmlns="http://www.w3.org/2000/svg">
<path fill-rule="evenodd" clip-rule="evenodd" d="M7.34096 2.80139H1.76465C0.789682 2.80139 0 3.63872 0 4.67016V14.0122C0 15.0446 0.789682 15.881 1.76465 15.881H11.4702C12.4452 15.881 13.2349 15.0446 13.2349 14.0122V7.1742L9.78147 10.8306C9.4799 11.1531 9.08715 11.3759 8.65563 11.4694L6.29011 11.9705C4.74604 12.297 3.38549 10.8562 3.6943 9.22208L4.16723 6.71716C4.25281 6.26541 4.46281 5.84983 4.77074 5.52425L7.34096 2.80139Z" fill="#F5F5F5"/>
<path fill-rule="evenodd" clip-rule="evenodd" d="M14.8636 1.16206C14.7744 0.936212 14.6436 0.729106 14.478 0.551491C14.3152 0.377786 14.1189 0.238826 13.901 0.142974C13.6863 0.0486854 13.4543 0 13.2198 0C12.9853 0 12.7534 0.0486854 12.5387 0.142974C12.3207 0.238826 12.1245 0.377786 11.9616 0.551491L11.4799 1.06148L13.9963 3.7261L14.478 3.21524C14.6454 3.03897 14.7764 2.83151 14.8636 2.60467C15.0454 2.14097 15.0454 1.62575 14.8636 1.16206ZM12.7496 5.04695L10.2323 2.38144L6.01741 6.84601C5.95522 6.91227 5.91328 6.99493 5.89653 7.08424L5.4236 9.59004C5.36184 9.91651 5.63448 10.2041 5.94241 10.1389L8.30881 9.63857C8.39491 9.61938 8.47328 9.57482 8.5338 9.51064L12.7496 5.04695Z" fill="#F5F5F5"/>
</svg>
