<svg width="40" height="41" viewBox="0 0 40 41" fill="none" xmlns="http://www.w3.org/2000/svg">
<path d="M20.0002 22.5542C18.2321 22.5542 16.5364 23.2566 15.2861 24.5068C14.0359 25.7571 13.3335 27.4528 13.3335 29.2209C13.3335 30.989 14.0359 32.6847 15.2861 33.9349C16.5364 35.1852 18.2321 35.8875 20.0002 35.8875C21.7683 35.8875 23.464 35.1852 24.7142 33.9349C25.9644 32.6847 26.6668 30.989 26.6668 29.2209C26.6668 27.4528 25.9644 25.7571 24.7142 24.5068C23.464 23.2566 21.7683 22.5542 20.0002 22.5542ZM17.143 29.2209C17.143 28.4631 17.444 27.7364 17.9799 27.2006C18.5157 26.6647 19.2424 26.3637 20.0002 26.3637C20.7579 26.3637 21.4846 26.6647 22.0205 27.2006C22.5563 27.7364 22.8573 28.4631 22.8573 29.2209C22.8573 29.9786 22.5563 30.7054 22.0205 31.2412C21.4846 31.777 20.7579 32.078 20.0002 32.078C19.2424 32.078 18.5157 31.777 17.9799 31.2412C17.444 30.7054 17.143 29.9786 17.143 29.2209Z" fill="#F5F5F5"/>
<path d="M30.5257 8.48952L24.4705 0L2.20571 17.7867L0.971429 17.7733V17.7924H0V40.6495H40V17.7924H38.1676L34.5219 7.12762L30.5257 8.48952ZM34.1429 17.7924H15.0419L29.2686 12.9429L32.1676 12.0152L34.1429 17.7924ZM26.7619 9.77333L12.0762 14.779L23.7067 5.48762L26.7619 9.77333ZM3.80952 33.3524V25.0857C4.61367 24.8019 5.3441 24.3417 5.94725 23.7389C6.5504 23.1361 7.01099 22.4059 7.29524 21.6019H32.7048C32.9888 22.4062 33.4492 23.1368 34.0524 23.74C34.6556 24.3431 35.3861 24.8036 36.1905 25.0876V33.3543C35.3861 33.6383 34.6556 34.0988 34.0524 34.7019C33.4492 35.3051 32.9888 36.0357 32.7048 36.84H7.29905C7.01368 36.0356 6.55231 35.305 5.94861 34.7017C5.3449 34.0983 4.6141 33.6373 3.80952 33.3524Z" fill="#F5F5F5"/>
</svg>
