<svg width="16" height="17" viewBox="0 0 16 17" fill="none" xmlns="http://www.w3.org/2000/svg">
<path d="M8.06723 1C8.05042 1 8.02689 1 8.00672 1.00403C7.8521 1.03261 7.66723 1.17546 7.54622 1.50185C7.41849 1.8279 7.3916 2.29277 7.50252 2.79059C7.61681 3.28235 7.8521 3.70622 8.11429 3.96504C8.36975 4.22387 8.60168 4.29445 8.7563 4.26756C8.91765 4.24403 9.0958 4.09613 9.21681 3.77345C9.34454 3.44941 9.37815 2.97815 9.26387 2.48437C9.14622 1.98689 8.91429 1.56706 8.6521 1.30992C8.43025 1.08134 8.22521 1 8.06723 1ZM11.9462 5.35328C11.5765 5.36336 11.1092 5.46084 10.6555 5.65244C10.1311 5.88101 9.72773 6.18689 9.50588 6.47597C9.28403 6.75496 9.26387 6.96672 9.33445 7.09109C9.4084 7.21546 9.61345 7.33311 10.0067 7.34992C10.4 7.37345 10.9311 7.27597 11.4521 7.05412C11.9731 6.82891 12.3832 6.51966 12.605 6.23731C12.8269 5.95832 12.8437 5.73983 12.7731 5.61546C12.7025 5.48773 12.4941 5.37681 12.1008 5.36336C12.0471 5.35328 12 5.35328 11.9462 5.35328ZM7.36471 8.47597C7.14286 8.47933 6.94118 8.50622 6.75966 8.55328C6.36303 8.65412 6.13445 8.83563 6.0605 9.05412C5.97647 9.2726 6.0605 9.53479 6.32269 9.81714C6.59832 10.0928 7.0521 10.3583 7.61681 10.5062C8.17815 10.6541 8.71933 10.6508 9.12269 10.5432C9.52941 10.439 9.75798 10.2541 9.83193 10.039C9.90924 9.8205 9.83193 9.56168 9.55966 9.27597C9.29412 9.00034 8.84034 8.73479 8.27563 8.59025C7.9563 8.50622 7.6437 8.4726 7.36471 8.47597ZM12.7664 10.4289L10.6891 11.4138C10.8303 11.4205 11.1832 11.4306 11.1832 11.4306L11.405 11.723L13.2437 10.765L12.7664 10.4289ZM10.9345 10.4323L9.00504 11.3466C9.18992 11.3566 9.62689 11.3634 9.80168 11.3734L11.4756 10.5802L10.9345 10.4323ZM14.0471 10.7953L11.6773 12.0524L12.1647 12.681L14.6689 11.1818L14.0471 10.7953ZM4.67563 11.1012C4.57385 11.101 4.47237 11.1123 4.37311 11.1348C1.96975 11.6894 0.551261 11.7365 0.131092 11.7365H0V15.3499C0 15.3499 0.389916 15.2928 1.03866 15.2894C2.29244 15.2894 4.50084 15.5045 6.6521 16.7617C6.76639 16.8323 7.01177 16.8592 7.31765 16.8592C8.13445 16.8592 9.37479 16.6642 9.6605 16.5566C12.5378 15.4776 16 12.5163 16 12.5163L14.9076 11.5617C14.9076 11.5617 12.2252 13.2726 11.8857 13.4373C8.82353 14.9398 6.34286 14.002 6.34286 14.002C6.34286 14.002 10.3731 14.1029 11.6672 13.0844L10.9076 11.9415C10.9076 11.9415 8.12437 11.8642 7.13277 11.7331C6.61513 11.6659 5.4958 11.1012 4.67563 11.1012Z" fill="#023047"/>
<path d="M3.5 1.75V0L1.3125 2.1875L3.5 4.375V2.625C4.94812 2.625 6.125 3.80188 6.125 5.25C6.125 6.69812 4.94812 7.875 3.5 7.875C2.05188 7.875 0.875 6.69812 0.875 5.25H0C0 7.18375 1.56625 8.75 3.5 8.75C5.43375 8.75 7 7.18375 7 5.25C7 3.31625 5.43375 1.75 3.5 1.75Z" fill="#FB8500"/>
</svg>
