<svg width="16" height="16" viewBox="0 0 16 16" fill="none" xmlns="http://www.w3.org/2000/svg">
<path d="M8.06723 0C8.05042 0 8.02689 2.84053e-08 8.00672 0.00403364C7.8521 0.0326051 7.66723 0.175462 7.54622 0.501849C7.41849 0.827899 7.3916 1.29277 7.50252 1.79059C7.61681 2.28235 7.8521 2.70622 8.11429 2.96504C8.36975 3.22387 8.60168 3.29445 8.7563 3.26756C8.91765 3.24403 9.0958 3.09613 9.21681 2.77345C9.34454 2.44941 9.37815 1.97815 9.26387 1.48437C9.14622 0.986891 8.91429 0.567059 8.6521 0.309916C8.43025 0.0813446 8.22521 0 8.06723 0ZM11.9462 4.35328C11.5765 4.36336 11.1092 4.46084 10.6555 4.65244C10.1311 4.88101 9.72773 5.18689 9.50588 5.47597C9.28403 5.75496 9.26387 5.96672 9.33445 6.09109C9.4084 6.21546 9.61345 6.33311 10.0067 6.34992C10.4 6.37345 10.9311 6.27597 11.4521 6.05412C11.9731 5.82891 12.3832 5.51966 12.605 5.23731C12.8269 4.95832 12.8437 4.73983 12.7731 4.61546C12.7025 4.48773 12.4941 4.37681 12.1008 4.36336C12.0471 4.35328 12 4.35328 11.9462 4.35328ZM7.36471 7.47597C7.14286 7.47933 6.94118 7.50622 6.75966 7.55328C6.36303 7.65412 6.13445 7.83563 6.0605 8.05412C5.97647 8.27261 6.0605 8.53479 6.32269 8.81714C6.59832 9.09277 7.0521 9.35832 7.61681 9.50622C8.17815 9.65412 8.71933 9.65076 9.12269 9.54319C9.52941 9.43899 9.75798 9.25412 9.83193 9.03899C9.90924 8.8205 9.83193 8.56168 9.55966 8.27597C9.29412 8.00034 8.84034 7.73479 8.27563 7.59025C7.9563 7.50622 7.6437 7.47261 7.36471 7.47597ZM12.7664 9.42891L10.6891 10.4138C10.8303 10.4205 11.1832 10.4306 11.1832 10.4306L11.405 10.723L13.2437 9.76504L12.7664 9.42891ZM10.9345 9.43227L9.00504 10.3466C9.18992 10.3566 9.62689 10.3634 9.80168 10.3734L11.4756 9.58017L10.9345 9.43227ZM14.0471 9.79529L11.6773 11.0524L12.1647 11.681L14.6689 10.1818L14.0471 9.79529ZM4.67563 10.1012C4.57385 10.101 4.47237 10.1123 4.37311 10.1348C1.96975 10.6894 0.551261 10.7365 0.131092 10.7365H0V14.3499C0 14.3499 0.389916 14.2928 1.03866 14.2894C2.29244 14.2894 4.50084 14.5045 6.6521 15.7617C6.76639 15.8323 7.01177 15.8592 7.31765 15.8592C8.13445 15.8592 9.37479 15.6642 9.6605 15.5566C12.5378 14.4776 16 11.5163 16 11.5163L14.9076 10.5617C14.9076 10.5617 12.2252 12.2726 11.8857 12.4373C8.82353 13.9398 6.34286 13.002 6.34286 13.002C6.34286 13.002 10.3731 13.1029 11.6672 12.0844L10.9076 10.9415C10.9076 10.9415 8.12437 10.8642 7.13277 10.7331C6.61513 10.6659 5.4958 10.1012 4.67563 10.1012Z" fill="#023047"/>
</svg>
