<svg width="20" height="17" viewBox="0 0 20 17" fill="none" xmlns="http://www.w3.org/2000/svg">
<path d="M12.8837 0C12.3407 0.0109314 11.9509 0.116601 11.6921 0.306079L8.14673 2.2045L6.17544 4.88597C5.76005 5.52727 6.05519 6.76616 7.35239 5.97182L8.77347 4.09891C10.5771 2.54337 14.2574 3.25719 12.512 6.37992C11.6557 8.18724 12.0565 9.06904 13.1606 9.44071L13.6634 7.74999C14.5343 5.78963 16.1594 5.43618 16.0939 3.85477L20 4.13534L19.9636 0.0510131L12.8837 0ZM10.9124 3.76732C10.2784 3.75639 9.65526 4.01874 9.20343 4.3977L7.77871 6.27061C8.1686 6.58033 8.56212 6.41272 8.95201 6.03741C9.41113 6.27061 9.76822 5.90987 10.0597 5.1884C10.18 4.69649 10.3585 4.35033 10.9124 3.76732ZM8.01191 7.26536C7.99734 7.26536 7.97912 7.26536 7.96454 7.26901C7.8443 7.29451 7.70219 7.42205 7.60745 7.71355C7.50907 8.00505 7.48721 8.42045 7.57466 8.86499C7.66211 9.30589 7.8443 9.6812 8.04835 9.9144C8.24511 10.144 8.4273 10.2095 8.54755 10.184C8.67144 10.1622 8.8099 10.031 8.90464 9.74314C9.00302 9.45164 9.02853 9.03261 8.94108 8.59171C8.84998 8.14716 8.66779 7.77185 8.46739 7.54229C8.29248 7.33824 8.13216 7.26536 8.01191 7.26536ZM11.0217 11.1569C10.7338 11.1606 10.3731 11.2517 10.0196 11.4229C9.61518 11.6233 9.29817 11.9003 9.12691 12.1553C8.95565 12.4068 8.94108 12.5962 8.99574 12.7092C9.05039 12.8185 9.21072 12.9242 9.5168 12.9388C9.82288 12.957 10.2346 12.8732 10.6391 12.6728C11.0435 12.4723 11.3606 12.1991 11.5318 11.944C11.7031 11.6926 11.7177 11.4995 11.663 11.3901C11.6083 11.2772 11.448 11.1752 11.1419 11.1606C11.1019 11.1569 11.0654 11.1569 11.0217 11.1569ZM7.46534 14.6404C7.29408 14.644 7.1374 14.6696 6.99894 14.7096C6.68921 14.8007 6.51067 14.9647 6.45237 15.1578C6.39042 15.3546 6.45237 15.5878 6.66006 15.8392C6.8714 16.087 7.22485 16.3238 7.66211 16.455C8.09572 16.5862 8.5184 16.5825 8.83177 16.4878C9.14513 16.3967 9.32368 16.2327 9.38198 16.0396C9.44028 15.8429 9.38198 15.6097 9.17064 15.3582C8.96294 15.1105 8.60949 14.8736 8.17224 14.7424C7.92446 14.6696 7.68397 14.6368 7.46534 14.6404Z" fill="#023047"/>
<path d="M3.5 6.75V5L1.3125 7.1875L3.5 9.375V7.625C4.94812 7.625 6.125 8.80188 6.125 10.25C6.125 11.6981 4.94812 12.875 3.5 12.875C2.05188 12.875 0.875 11.6981 0.875 10.25H0C0 12.1838 1.56625 13.75 3.5 13.75C5.43375 13.75 7 12.1838 7 10.25C7 8.31625 5.43375 6.75 3.5 6.75Z" fill="#FB8500"/>
</svg>
