<svg width="14" height="17" viewBox="0 0 14 17" fill="none" xmlns="http://www.w3.org/2000/svg">
<path d="M6.88367 0C6.34074 0.0109314 5.95085 0.116601 5.69215 0.306079L2.14673 2.2045L0.175439 4.88597C-0.239954 5.52727 0.0551939 6.76616 1.35239 5.97182L2.77347 4.09891C4.57714 2.54337 8.25738 3.25719 6.512 6.37992C5.65571 8.18724 6.05652 9.06904 7.16059 9.44071L7.66344 7.74999C8.5343 5.78963 10.1594 5.43618 10.0939 3.85477L14 4.13534L13.9636 0.0510131L6.88367 0ZM4.91237 3.76732C4.27835 3.75639 3.65526 4.01874 3.20343 4.3977L1.77871 6.27061C2.1686 6.58033 2.56212 6.41272 2.95201 6.03741C3.41113 6.27061 3.76822 5.90987 4.05972 5.1884C4.17997 4.69649 4.35852 4.35033 4.91237 3.76732ZM2.01191 7.26536C1.99734 7.26536 1.97912 7.26536 1.96454 7.26901C1.8443 7.29451 1.70219 7.42205 1.60745 7.71355C1.50907 8.00505 1.48721 8.42045 1.57466 8.86499C1.66211 9.30589 1.8443 9.6812 2.04835 9.9144C2.24511 10.144 2.4273 10.2095 2.54755 10.184C2.67144 10.1622 2.8099 10.031 2.90464 9.74314C3.00302 9.45164 3.02853 9.03261 2.94108 8.59171C2.84998 8.14716 2.66779 7.77185 2.46739 7.54229C2.29248 7.33824 2.13216 7.26536 2.01191 7.26536ZM5.02169 11.1569C4.73383 11.1606 4.37309 11.2517 4.01964 11.4229C3.61518 11.6233 3.29817 11.9003 3.12691 12.1553C2.95565 12.4068 2.94108 12.5962 2.99574 12.7092C3.05039 12.8185 3.21072 12.9242 3.5168 12.9388C3.82288 12.957 4.23463 12.8732 4.63909 12.6728C5.04355 12.4723 5.36056 12.1991 5.53182 11.944C5.70308 11.6926 5.71765 11.4995 5.66299 11.3901C5.60834 11.2772 5.44801 11.1752 5.14193 11.1606C5.10185 11.1569 5.06541 11.1569 5.02169 11.1569ZM1.46534 14.6404C1.29408 14.644 1.1374 14.6696 0.998936 14.7096C0.689214 14.8007 0.510668 14.9647 0.452367 15.1578C0.390423 15.3546 0.452368 15.5878 0.660064 15.8392C0.871404 16.087 1.22485 16.3238 1.66211 16.455C2.09572 16.5862 2.5184 16.5825 2.83177 16.4878C3.14513 16.3967 3.32368 16.2327 3.38198 16.0396C3.44028 15.8429 3.38198 15.6097 3.17064 15.3582C2.96294 15.1105 2.60949 14.8736 2.17224 14.7424C1.92446 14.6696 1.68397 14.6368 1.46534 14.6404Z" fill="#023047"/>
</svg>
