<svg width="40" height="44" viewBox="0 0 40 44" fill="none" xmlns="http://www.w3.org/2000/svg">
<path d="M38.4 9.64051L21.4769 0.380894C21.0248 0.131052 20.5166 0 20 0C19.4834 0 18.9752 0.131052 18.5231 0.380894L1.6 9.64435C1.11671 9.90879 0.713276 10.2981 0.43183 10.7717C0.150385 11.2453 0.0012505 11.7858 0 12.3367V30.729C0.0012505 31.2799 0.150385 31.8203 0.43183 32.2939C0.713276 32.7675 1.11671 33.1568 1.6 33.4213L18.5231 42.6847C18.9752 42.9346 19.4834 43.0656 20 43.0656C20.5166 43.0656 21.0248 42.9346 21.4769 42.6847L38.4 33.4213C38.8833 33.1568 39.2867 32.7675 39.5682 32.2939C39.8496 31.8203 39.9987 31.2799 40 30.729V12.3386C39.9998 11.7867 39.8511 11.245 39.5696 10.7703C39.2881 10.2957 38.8841 9.90541 38.4 9.64051ZM20 3.0732L35.4519 11.5347L29.725 14.6674L14.2731 6.20589L20 3.0732ZM20 19.9963L4.54808 11.5347L11.0692 7.96359L26.5212 16.4251L20 19.9963ZM36.9231 30.7367L21.5385 39.1578V22.6559L27.6923 19.2886V26.1501C27.6923 26.5581 27.8544 26.9495 28.1429 27.238C28.4314 27.5265 28.8227 27.6886 29.2308 27.6886C29.6388 27.6886 30.0301 27.5265 30.3186 27.238C30.6071 26.9495 30.7692 26.5581 30.7692 26.1501V17.604L36.9231 14.2367V30.729V30.7367Z" fill="#F5F5F5"/>
</svg>
