<svg width="45" height="41" viewBox="0 0 45 41" fill="none" xmlns="http://www.w3.org/2000/svg">
<path d="M2.66647 36.412L5.55358 37.6186V18.1629L0.317999 30.7887C-0.56537 32.9863 0.447273 35.5071 2.66647 36.412ZM44.6804 28.4402L33.9938 2.6932C33.6781 1.91227 33.1405 1.24098 32.4474 0.762322C31.7543 0.283665 30.9361 0.0186352 30.094 0C29.5338 0 28.9521 0.0861826 28.3919 0.323184L12.5128 6.89459C11.7464 7.21983 11.0894 7.75808 10.6196 8.44548C10.1499 9.13288 9.88721 9.94059 9.8627 10.7728C9.84115 11.3114 9.94888 11.9363 10.1428 12.4964L20.9156 38.2434C21.5404 39.924 23.1348 40.9151 24.8153 40.9366C25.3755 40.9366 25.9357 40.8289 26.4743 40.6134L42.3319 34.042C43.386 33.6104 44.2255 32.7778 44.6659 31.7273C45.1063 30.6768 45.1115 29.4945 44.6804 28.4402ZM14.1934 12.9274C13.6219 12.9274 13.0739 12.7004 12.6699 12.2963C12.2658 11.8922 12.0388 11.3442 12.0388 10.7728C12.0388 10.2014 12.2658 9.65335 12.6699 9.24929C13.0739 8.84523 13.6219 8.61824 14.1934 8.61824C15.3784 8.61824 16.3479 9.58779 16.3479 10.7728C16.3479 11.9578 15.3784 12.9274 14.1934 12.9274ZM9.88424 36.6275C9.88424 37.7704 10.3382 38.8664 11.1464 39.6745C11.9545 40.4826 13.0505 40.9366 14.1934 40.9366H17.3175L9.88424 22.9676V36.6275Z" fill="#F5F5F5"/>
</svg>
