<svg width="40" height="42" viewBox="0 0 40 42" fill="none" xmlns="http://www.w3.org/2000/svg">
<path d="M26.1438 33.8625L36.4967 23.4675C36.8802 23.0825 37.3682 22.89 37.9608 22.89C38.5534 22.89 39.0414 23.0825 39.4248 23.4675C39.8083 23.8525 40 24.3425 40 24.9375C40 25.5325 39.8083 26.0225 39.4248 26.4075L27.6078 38.2725C27.1895 38.6925 26.7015 38.9025 26.1438 38.9025C25.5861 38.9025 25.098 38.6925 24.6797 38.2725L18.719 32.2875C18.3355 31.9025 18.1438 31.4125 18.1438 30.8175C18.1438 30.2225 18.3355 29.7325 18.719 29.3475C19.1024 28.9625 19.5904 28.77 20.183 28.77C20.7756 28.77 21.2636 28.9625 21.6471 29.3475L26.1438 33.8625ZM4.18301 42C3.03268 42 2.04828 41.5891 1.2298 40.7673C0.411329 39.9455 0.00139434 38.9564 0 37.8V8.39999C0 7.245 0.409935 6.2566 1.2298 5.4348C2.04967 4.613 3.03407 4.2014 4.18301 4.2H12.915C13.2985 2.975 14.0479 1.9691 15.1634 1.1823C16.2789 0.3955 17.4989 0.0014 18.8235 0C20.2179 0 21.4644 0.3941 22.5631 1.1823C23.6619 1.9705 24.4023 2.9764 24.7843 4.2H33.4641C34.6144 4.2 35.5995 4.6116 36.4193 5.4348C37.2392 6.258 37.6485 7.2464 37.6471 8.39999V16.8C37.6471 17.395 37.4463 17.8941 37.0447 18.2973C36.6431 18.7005 36.1468 18.9014 35.5556 18.9C34.9644 18.8986 34.468 18.697 34.0664 18.2952C33.6648 17.8934 33.4641 17.395 33.4641 16.8V8.39999H29.281V12.6C29.281 13.195 29.0803 13.6941 28.6787 14.0973C28.2771 14.5005 27.7807 14.7014 27.1895 14.7H10.4575C9.86492 14.7 9.36854 14.4984 8.96837 14.0952C8.56819 13.692 8.36741 13.1936 8.36601 12.6V8.39999H4.18301V37.8H14.6405C15.2331 37.8 15.7302 38.0016 16.1318 38.4048C16.5333 38.808 16.7334 39.3064 16.732 39.9C16.7306 40.4936 16.5298 40.9927 16.1297 41.3973C15.7295 41.8019 15.2331 42.0028 14.6405 42H4.18301ZM18.8235 8.39999C19.4161 8.39999 19.9132 8.19839 20.3148 7.7952C20.7163 7.392 20.9164 6.8936 20.915 6.3C20.9136 5.7064 20.7129 5.208 20.3127 4.8048C19.9125 4.4016 19.4161 4.2 18.8235 4.2C18.2309 4.2 17.7346 4.4016 17.3344 4.8048C16.9342 5.208 16.7334 5.7064 16.732 6.3C16.7306 6.8936 16.9314 7.39269 17.3344 7.79729C17.7373 8.20189 18.2337 8.40279 18.8235 8.39999Z" fill="#F5F5F5"/>
</svg>
