<svg width="10" height="12" viewBox="0 0 10 12" fill="none" xmlns="http://www.w3.org/2000/svg">
<path d="M0.712745 10.6667C0.712745 11.4 1.3556 12 2.14132 12H7.8556C8.64132 12 9.28417 11.4 9.28417 10.6667V4C9.28417 3.26667 8.64132 2.66667 7.8556 2.66667H2.14132C1.3556 2.66667 0.712745 3.26667 0.712745 4V10.6667ZM9.28417 0.666667H7.49846L6.99132 0.193333C6.86274 0.0733333 6.67703 0 6.49132 0H3.5056C3.31989 0 3.13417 0.0733333 3.0056 0.193333L2.49846 0.666667H0.712745C0.319887 0.666667 -0.00154114 0.966667 -0.00154114 1.33333C-0.00154114 1.7 0.319887 2 0.712745 2H9.28417C9.67703 2 9.99846 1.7 9.99846 1.33333C9.99846 0.966667 9.67703 0.666667 9.28417 0.666667Z" fill="black"/>
</svg>
