<svg width="12" height="12" viewBox="0 0 12 12" fill="none" xmlns="http://www.w3.org/2000/svg">
<path d="M-0.00154114 9.84958V11.615C-0.00154114 11.7171 0.0390178 11.8151 0.111213 11.8872C0.183408 11.9594 0.281326 12 0.383425 12H2.15273C2.25463 12 2.35237 11.9596 2.42452 11.8876L9.69884 4.61327L7.38904 2.30347L0.111639 9.57779C0.039392 9.64981 -0.00131525 9.74757 -0.00154114 9.84958ZM8.34221 1.34953L10.652 3.65932L11.7761 2.53522C11.9205 2.39084 12.0015 2.19504 12.0015 1.99088C12.0015 1.78672 11.9205 1.59092 11.7761 1.44654L10.5558 0.225425C10.4114 0.0810855 10.2156 0 10.0114 0C9.80727 0 9.61147 0.0810855 9.46709 0.225425L8.34221 1.34953Z" fill="#2B2B2B"/>
</svg>
